<svg width="18" height="16" viewBox="0 0 18 16" fill="none" xmlns="http://www.w3.org/2000/svg">
<path d="M12.375 2.375H14.625C15.2473 2.375 15.75 2.87773 15.75 3.5V12.5C15.75 13.1223 15.2473 13.625 14.625 13.625H12.375C11.7527 13.625 11.25 14.1277 11.25 14.75C11.25 15.3723 11.7527 15.875 12.375 15.875H14.625C16.4883 15.875 18 14.3633 18 12.5V3.5C18 1.63672 16.4883 0.125 14.625 0.125H12.375C11.7527 0.125 11.25 0.627734 11.25 1.25C11.25 1.87227 11.7527 2.375 12.375 2.375ZM12.1113 8.61172C12.2801 8.45352 12.375 8.23203 12.375 8C12.375 7.76797 12.2801 7.54648 12.1113 7.38828L7.04883 2.60703C6.80273 2.375 6.44414 2.31172 6.13477 2.44531C5.82539 2.57891 5.625 2.88477 5.625 3.21875V5.75H1.125C0.502734 5.75 0 6.25273 0 6.875V9.125C0 9.74727 0.502734 10.25 1.125 10.25H5.625V12.7812C5.625 13.1188 5.82539 13.4211 6.13477 13.5547C6.44414 13.6883 6.80273 13.625 7.04883 13.393L12.1113 8.61172Z" fill="white"/>
</svg>
