<svg width="47" height="42" viewBox="0 0 47 42" fill="none" xmlns="http://www.w3.org/2000/svg">
<path d="M40.7247 23.0695C40.7247 13.1667 32.7772 5.13895 22.8744 5.13895M4.89001 23.0695C4.89001 14.5484 10.8737 7.41567 18.8526 5.5911M35.8821 35.4106C32.6149 38.8532 27.9953 41 22.8744 41C17.7535 41 13.134 38.8532 9.86669 35.4106" stroke="white" stroke-width="1.92488"/>
<path d="M3.74834 34.327C2.92911 34.327 2.32369 34.1312 1.93211 33.7396C1.54052 33.348 1.34473 32.7426 1.34473 31.9234C1.34473 31.099 1.54052 30.491 1.93211 30.0994C2.32369 29.7078 2.92911 29.512 3.74834 29.512H7.1876C7.16699 28.8783 7.015 28.4377 6.73161 28.1904C6.45338 27.9431 5.9742 27.8195 5.29408 27.8195H4.39755C3.78956 27.8195 3.3413 27.8787 3.05276 27.9972C2.76938 28.1106 2.58647 28.3089 2.50403 28.5923C2.4525 28.7469 2.3881 28.8602 2.31081 28.9324C2.23868 28.9994 2.1279 29.0329 1.97848 29.0329C1.81875 29.0329 1.69252 28.9891 1.59977 28.9015C1.51218 28.8087 1.48127 28.6851 1.50703 28.5305C1.60493 27.9431 1.89089 27.5155 2.36491 27.2475C2.83894 26.9796 3.51648 26.8456 4.39755 26.8456H5.29408C6.28335 26.8456 7.00727 27.0775 7.46584 27.5412C7.92956 27.9998 8.16142 28.7237 8.16142 29.713V33.8401C8.16142 34.1647 7.99911 34.327 7.67451 34.327C7.34991 34.327 7.1876 34.1647 7.1876 33.8401V33.2063C6.67751 33.9534 5.81963 34.327 4.61396 34.327H3.74834ZM3.74834 33.3532H4.61396C5.07768 33.3532 5.48987 33.3042 5.85054 33.2063C6.21637 33.1084 6.51521 32.9461 6.74707 32.7194C6.98408 32.4927 7.13093 32.1862 7.1876 31.7997V30.4858H3.74834C3.19703 30.4858 2.8209 30.5863 2.61996 30.7873C2.41901 30.9882 2.31854 31.3669 2.31854 31.9234C2.31854 32.4747 2.41901 32.8508 2.61996 33.0518C2.8209 33.2527 3.19703 33.3532 3.74834 33.3532ZM12.9955 34.3193C12.3566 34.3193 11.8619 34.1853 11.5116 33.9174C11.1612 33.6443 10.9448 33.2321 10.8623 32.6808C10.8417 32.5159 10.8752 32.3897 10.9628 32.3021C11.0556 32.2093 11.1818 32.163 11.3415 32.163C11.5012 32.163 11.6172 32.2042 11.6893 32.2866C11.7666 32.3639 11.8207 32.4824 11.8516 32.6421C11.9031 32.9049 12.0165 33.0878 12.1917 33.1909C12.3669 33.2939 12.6348 33.3455 12.9955 33.3455H15.5305C15.989 33.3455 16.3008 33.263 16.4656 33.0981C16.6305 32.9333 16.7129 32.6215 16.7129 32.163C16.7129 31.7044 16.6305 31.3927 16.4656 31.2278C16.3008 31.0629 15.989 30.9805 15.5305 30.9805H13.0341C12.3385 30.9805 11.8181 30.8105 11.4729 30.4704C11.1328 30.1303 10.9628 29.6125 10.9628 28.9169C10.9628 28.2059 11.1328 27.6829 11.4729 27.348C11.813 27.0079 12.3334 26.8379 13.0341 26.8379H15.4532C16.6382 26.8379 17.3081 27.3506 17.4626 28.3759C17.4935 28.5356 17.4626 28.6619 17.3699 28.7546C17.2823 28.8422 17.1561 28.886 16.9912 28.886C16.8366 28.886 16.7207 28.8474 16.6434 28.7701C16.5713 28.6876 16.5172 28.5717 16.4811 28.4223C16.4347 28.1904 16.3342 28.0307 16.1797 27.9431C16.0251 27.8555 15.7829 27.8117 15.4532 27.8117H13.0341C12.6064 27.8117 12.3153 27.8864 12.1608 28.0359C12.0113 28.1853 11.9366 28.479 11.9366 28.9169C11.9366 29.3343 12.0139 29.6202 12.1685 29.7748C12.3231 29.9294 12.6116 30.0067 13.0341 30.0067H15.5305C16.2621 30.0067 16.8031 30.1844 17.1535 30.5399C17.509 30.8903 17.6868 31.4313 17.6868 32.163C17.6868 32.8946 17.509 33.4382 17.1535 33.7937C16.8031 34.1441 16.2621 34.3193 15.5305 34.3193H12.9955ZM21.0205 34.327C20.6959 34.327 20.5336 34.1647 20.5336 33.8401V24.0401C20.5336 23.7155 20.6959 23.5532 21.0205 23.5532C21.3451 23.5532 21.5074 23.7155 21.5074 24.0401V30.254L25.3485 26.9538C25.5907 26.7426 25.8174 26.758 26.0287 27.0002C26.2451 27.2424 26.2296 27.4717 25.9823 27.6881L23.1459 30.1303L26.1059 33.4923C26.3223 33.7396 26.3095 33.9689 26.0673 34.1802C25.8251 34.3914 25.5958 34.3759 25.3794 34.1338L22.4039 30.7718L21.5074 31.5369V33.8401C21.5074 34.1647 21.3451 34.327 21.0205 34.327ZM28.6917 25.4854C28.2898 25.4854 28.0888 25.2819 28.0888 24.8748V24.4884C28.0888 24.0917 28.2898 23.8933 28.6917 23.8933H29.0704C29.4568 23.8933 29.65 24.0917 29.65 24.4884V24.8748C29.65 25.2819 29.4568 25.4854 29.0704 25.4854H28.6917ZM28.8772 34.327C28.5525 34.327 28.3902 34.1647 28.3902 33.8401V27.3325C28.3902 27.0079 28.5525 26.8456 28.8772 26.8456C29.2018 26.8456 29.3641 27.0079 29.3641 27.3325V33.8401C29.3641 34.1647 29.2018 34.327 28.8772 34.327ZM34.8643 34.327C34.1172 34.327 33.5633 34.1492 33.2027 33.7937C32.8472 33.433 32.6694 32.8817 32.6694 32.1398V24.0401C32.6694 23.7155 32.8317 23.5532 33.1563 23.5532C33.4809 23.5532 33.6432 23.7155 33.6432 24.0401V32.1398C33.6432 32.6087 33.7282 32.9281 33.8983 33.0981C34.0683 33.2682 34.3877 33.3532 34.8566 33.3532C35.1915 33.3532 35.359 33.5155 35.359 33.8401C35.3693 34.1647 35.2044 34.327 34.8643 34.327ZM39.6653 37.4185C38.9646 37.4185 38.4442 37.2484 38.1041 36.9084C37.7692 36.5683 37.6017 36.0453 37.6017 35.3395C37.6017 35.0148 37.764 34.8525 38.0886 34.8525C38.4132 34.8525 38.5755 35.0148 38.5755 35.3395C38.5755 35.7723 38.6503 36.0634 38.7997 36.2128C38.9491 36.3674 39.2376 36.4447 39.6653 36.4447H42.4476C42.8753 36.4447 43.1638 36.3674 43.3132 36.2128C43.4626 36.0634 43.5374 35.7723 43.5374 35.3395V33.2682C43.2437 33.6804 42.8804 33.9612 42.4476 34.1106C42.0148 34.26 41.5202 34.3347 40.9637 34.3347H40.4227C39.4489 34.3347 38.7353 34.108 38.2819 33.6546C37.8284 33.2012 37.6017 32.4927 37.6017 31.5292V27.3248C37.6017 27.0002 37.764 26.8379 38.0886 26.8379C38.4132 26.8379 38.5755 27.0002 38.5755 27.3248V31.5292C38.5755 32.2248 38.7069 32.704 38.9697 32.9667C39.2376 33.2295 39.722 33.3609 40.4227 33.3609H40.9637C41.8499 33.3609 42.4991 33.2089 42.9113 32.9049C43.3287 32.6009 43.5374 32.1424 43.5374 31.5292V27.3248C43.5374 27.0002 43.6997 26.8379 44.0243 26.8379C44.3489 26.8379 44.5112 27.0002 44.5112 27.3248V35.3395C44.5112 36.0453 44.3411 36.5683 44.0011 36.9084C43.6662 37.2484 43.1483 37.4185 42.4476 37.4185H39.6653Z" fill="white"/>
<path d="M19.0563 17.6127C19.4988 17.6127 19.8584 17.2531 19.8584 16.8107V16.5861H20.0829C20.5254 16.5861 20.885 16.2265 20.885 15.784C20.885 15.3416 20.5254 14.982 20.0829 14.982H19.8584V14.7574C19.8584 14.315 19.4988 13.9554 19.0563 13.9554C18.6139 13.9554 18.2543 14.315 18.2543 14.7574V14.982H18.0297C17.5873 14.982 17.2277 15.3416 17.2277 15.784C17.2277 16.2265 17.5873 16.5861 18.0297 16.5861H18.2543V16.8107C18.2543 17.2531 18.6139 17.6127 19.0563 17.6127ZM19.0563 15.8191C19.0453 15.8068 19.0336 15.7951 19.0213 15.784C19.0336 15.773 19.0453 15.7613 19.0563 15.7491C19.0673 15.7613 19.079 15.773 19.0913 15.7841C19.079 15.7951 19.0674 15.8068 19.0563 15.8191Z" fill="black" stroke="white" stroke-width="0.577465"/>
<path d="M25.8853 11.4704V8.86114C25.8853 7.95744 25.1516 7.22193 24.2486 7.22193C23.3456 7.22193 22.6118 7.9574 22.6118 8.86114C22.6118 9.2337 22.3089 9.53667 21.9378 9.53667C21.5666 9.53667 21.2637 9.2337 21.2637 8.86114V1.34438C21.2637 1.07881 21.0489 0.862565 20.7824 0.862565C20.5159 0.862565 20.3011 1.07881 20.3011 1.34438V8.86114C20.3011 9.76484 21.0348 10.5003 21.9378 10.5003C22.8408 10.5003 23.5746 9.76488 23.5746 8.86114C23.5746 8.48857 23.8775 8.1856 24.2486 8.1856C24.6198 8.1856 24.9227 8.48857 24.9227 8.86114V11.9522C24.9227 12.2178 25.1375 12.4341 25.404 12.4341H27.7148C29.6575 12.4341 31.2773 13.8857 31.2773 15.8053V20.4501C31.2773 20.8456 31.0959 21.1523 30.8449 21.3644C30.5894 21.5801 30.2716 21.689 30.0256 21.689C29.2857 21.689 28.8442 21.2205 28.2021 20.5171L28.1966 20.5111C27.7441 20.0154 27.2175 19.4385 26.467 18.9892C25.7091 18.5355 24.7326 18.2169 23.382 18.2169C22.0335 18.2169 21.059 18.5349 20.3031 18.9877C19.5542 19.4362 19.0294 20.0122 18.5785 20.507L18.5734 20.5126L18.7141 20.6408L18.5734 20.5126C17.9305 21.2183 17.488 21.689 16.7385 21.689C16.4894 21.689 16.1721 21.5724 15.9168 21.3494C15.6653 21.1296 15.4867 20.818 15.4867 20.4348V15.8053C15.4867 13.8855 17.0052 12.5257 18.9477 12.5257L23.0932 12.5257C23.3597 12.5257 23.5746 12.3094 23.5746 12.0439C23.5746 11.7783 23.3597 11.5621 23.0932 11.5621L18.9477 11.5621C16.504 11.5621 14.5241 13.3354 14.5241 15.8054V20.4349C14.5241 21.7485 15.6901 22.6527 16.7385 22.6527C17.9265 22.6527 18.6111 21.9014 19.2666 21.182L19.2845 21.1623C19.2845 21.1623 19.2845 21.1623 19.2846 21.1623C19.723 20.6813 20.1713 20.191 20.7974 19.8162C21.4188 19.4441 22.2257 19.1806 23.382 19.1806C24.5404 19.1806 25.3495 19.4448 25.973 19.8178C26.6012 20.1936 27.0515 20.6852 27.4914 21.1673L27.4915 21.1673L27.5101 21.1877C28.1639 21.904 28.8474 22.6527 30.0256 22.6527C31.0725 22.6527 32.24 21.7561 32.24 20.4502V15.8053C32.24 13.3352 30.1582 11.4704 27.7148 11.4704H25.8853Z" fill="white" stroke="white" stroke-width="0.384977"/>
<path d="M29.4478 16.6734C29.9256 16.6734 30.3144 16.2839 30.3144 15.8053C30.3144 15.3268 29.9256 14.9373 29.4478 14.9373C28.9701 14.9373 28.5813 15.3268 28.5813 15.8053C28.5813 16.2839 28.9701 16.6734 29.4478 16.6734ZM29.4478 15.516C29.6073 15.516 29.7367 15.6459 29.7367 15.8053C29.7367 15.9648 29.6073 16.0947 29.4478 16.0947C29.2884 16.0947 29.159 15.9648 29.159 15.8053C29.159 15.6459 29.2884 15.516 29.4478 15.516Z" fill="white"/>
<path d="M27.7148 13.2013C27.237 13.2013 26.8482 13.5907 26.8482 14.0693C26.8482 14.5479 27.237 14.9373 27.7148 14.9373C28.1925 14.9373 28.5813 14.5479 28.5813 14.0693C28.5813 13.5907 28.1925 13.2013 27.7148 13.2013ZM27.7148 14.3587C27.5553 14.3587 27.4259 14.2288 27.4259 14.0693C27.4259 13.9099 27.5553 13.78 27.7148 13.78C27.8742 13.78 28.0036 13.9099 28.0036 14.0693C28.0036 14.2287 27.8742 14.3587 27.7148 14.3587Z" fill="white"/>
<path d="M25.9816 14.9373C25.5038 14.9373 25.1151 15.3268 25.1151 15.8053C25.1151 16.2839 25.5038 16.6734 25.9816 16.6734C26.4594 16.6734 26.8481 16.2839 26.8481 15.8053C26.8481 15.3268 26.4594 14.9373 25.9816 14.9373ZM25.9816 16.0947C25.8222 16.0947 25.6928 15.9648 25.6928 15.8054C25.6928 15.6459 25.8222 15.516 25.9816 15.516C26.141 15.516 26.2704 15.6459 26.2704 15.8054C26.2704 15.9648 26.141 16.0947 25.9816 16.0947Z" fill="white"/>
<path d="M27.7148 18.4094C28.1925 18.4094 28.5813 18.02 28.5813 17.5414C28.5813 17.0628 28.1925 16.6734 27.7148 16.6734C27.237 16.6734 26.8482 17.0628 26.8482 17.5414C26.8482 18.02 27.237 18.4094 27.7148 18.4094ZM27.7148 17.2521C27.8742 17.2521 28.0036 17.382 28.0036 17.5414C28.0036 17.7008 27.8742 17.8307 27.7148 17.8307C27.5553 17.8307 27.4259 17.7008 27.4259 17.5414C27.4259 17.382 27.5553 17.2521 27.7148 17.2521Z" fill="white"/>
</svg>
