<svg width="240" height="218" viewBox="0 0 240 218" fill="none" xmlns="http://www.w3.org/2000/svg">
<path d="M211.57 119.849C211.57 68.4028 170.282 26.6975 118.836 26.6975M25.4045 119.849C25.4045 75.581 56.4908 38.5254 97.9419 29.0465M186.412 183.963C169.438 201.847 145.439 213 118.836 213C92.2319 213 68.2329 201.847 51.259 183.963" stroke="#8519B0" stroke-width="10"/>
<path d="M19.4734 177.406C15.2173 177.406 12.0721 176.389 10.0378 174.355C8.00345 172.32 6.98628 169.175 6.98628 164.919C6.98628 160.636 8.00345 157.478 10.0378 155.443C12.0721 153.409 15.2173 152.392 19.4734 152.392H37.3407C37.2337 149.099 36.444 146.811 34.9718 145.526C33.5264 144.241 31.037 143.599 27.5036 143.599H22.8461C19.6875 143.599 17.3587 143.906 15.8597 144.522C14.3875 145.111 13.4373 146.141 13.009 147.614C12.7413 148.417 12.4067 149.006 12.0052 149.38C11.6305 149.728 11.055 149.902 10.2787 149.902C9.4489 149.902 8.79309 149.675 8.31128 149.22C7.85623 148.738 7.69562 148.096 7.82946 147.292C8.33804 144.241 9.82365 142.019 12.2863 140.627C14.7489 139.235 18.2688 138.539 22.8461 138.539H27.5036C32.643 138.539 36.4039 139.744 38.7862 142.153C41.1953 144.535 42.3998 148.296 42.3998 153.436V174.876C42.3998 176.563 41.5566 177.406 39.8703 177.406C38.1839 177.406 37.3407 176.563 37.3407 174.876V171.584C34.6907 175.465 30.2339 177.406 23.9703 177.406H19.4734ZM19.4734 172.347H23.9703C26.3794 172.347 28.5208 172.093 30.3945 171.584C32.295 171.076 33.8476 170.232 35.0521 169.055C36.2834 167.877 37.0463 166.284 37.3407 164.277V157.451H19.4734C16.6092 157.451 14.6552 157.973 13.6113 159.017C12.5673 160.061 12.0454 162.028 12.0454 164.919C12.0454 167.783 12.5673 169.737 13.6113 170.781C14.6552 171.825 16.6092 172.347 19.4734 172.347ZM67.5132 177.366C64.1941 177.366 61.6244 176.67 59.8042 175.278C57.984 173.859 56.8597 171.718 56.4315 168.854C56.3244 167.997 56.4984 167.341 56.9534 166.886C57.4352 166.405 58.0911 166.164 58.9208 166.164C59.7506 166.164 60.3529 166.378 60.7277 166.806C61.1292 167.208 61.4102 167.823 61.5708 168.653C61.8385 170.018 62.4274 170.968 63.3375 171.504C64.2476 172.039 65.6395 172.307 67.5132 172.307H80.6829C83.0652 172.307 84.6847 171.879 85.5412 171.022C86.3978 170.165 86.8261 168.546 86.8261 166.164C86.8261 163.781 86.3978 162.162 85.5412 161.305C84.6847 160.449 83.0652 160.02 80.6829 160.02H67.714C64.1004 160.02 61.3969 159.137 59.6034 157.37C57.8368 155.604 56.9534 152.914 56.9534 149.3C56.9534 145.606 57.8368 142.889 59.6034 141.149C61.3701 139.383 64.0736 138.499 67.714 138.499H80.2814C86.4379 138.499 89.9177 141.163 90.7208 146.489C90.8814 147.319 90.7208 147.975 90.2389 148.457C89.7839 148.912 89.1281 149.139 88.2715 149.139C87.4685 149.139 86.8662 148.939 86.4647 148.537C86.09 148.109 85.8089 147.507 85.6215 146.73C85.3806 145.526 84.8586 144.696 84.0556 144.241C83.2526 143.786 81.9945 143.558 80.2814 143.558H67.714C65.4923 143.558 63.9799 143.947 63.1769 144.723C62.4006 145.499 62.0125 147.025 62.0125 149.3C62.0125 151.468 62.414 152.954 63.217 153.757C64.0201 154.56 65.5191 154.961 67.714 154.961H80.6829C84.4839 154.961 87.2945 155.885 89.1147 157.732C90.9617 159.552 91.8851 162.363 91.8851 166.164C91.8851 169.965 90.9617 172.789 89.1147 174.636C87.2945 176.456 84.4839 177.366 80.6829 177.366H67.5132ZM109.204 177.406C107.518 177.406 106.675 176.563 106.675 174.876V123.965C106.675 122.278 107.518 121.435 109.204 121.435C110.891 121.435 111.734 122.278 111.734 123.965V156.246L131.689 139.102C132.947 138.004 134.125 138.084 135.222 139.343C136.347 140.601 136.266 141.792 134.981 142.916L120.246 155.604L135.624 173.07C136.748 174.355 136.681 175.546 135.423 176.643C134.165 177.741 132.974 177.66 131.85 176.402L116.391 158.936L111.734 162.911V174.876C111.734 176.563 110.891 177.406 109.204 177.406ZM149.057 131.473C146.969 131.473 145.925 130.416 145.925 128.301V126.293C145.925 124.232 146.969 123.202 149.057 123.202H151.024C153.032 123.202 154.036 124.232 154.036 126.293V128.301C154.036 130.416 153.032 131.473 151.024 131.473H149.057ZM150.021 177.406C148.334 177.406 147.491 176.563 147.491 174.876V141.069C147.491 139.383 148.334 138.539 150.021 138.539C151.707 138.539 152.55 139.383 152.55 141.069V174.876C152.55 176.563 151.707 177.406 150.021 177.406ZM181.125 177.406C177.243 177.406 174.366 176.483 172.492 174.636C170.645 172.762 169.722 169.898 169.722 166.043V123.965C169.722 122.278 170.565 121.435 172.251 121.435C173.938 121.435 174.781 122.278 174.781 123.965V166.043C174.781 168.479 175.222 170.139 176.106 171.022C176.989 171.905 178.649 172.347 181.085 172.347C182.824 172.347 183.694 173.19 183.694 174.876C183.748 176.563 182.891 177.406 181.125 177.406ZM206.066 193.467C202.426 193.467 199.722 192.583 197.956 190.817C196.216 189.05 195.346 186.333 195.346 182.666C195.346 180.98 196.189 180.136 197.875 180.136C199.562 180.136 200.405 180.98 200.405 182.666C200.405 184.914 200.793 186.427 201.569 187.203C202.346 188.006 203.845 188.408 206.066 188.408H220.521C222.742 188.408 224.241 188.006 225.018 187.203C225.794 186.427 226.182 184.914 226.182 182.666V171.905C224.656 174.047 222.769 175.506 220.521 176.282C218.272 177.058 215.703 177.446 212.812 177.446H210.001C204.942 177.446 201.235 176.268 198.879 173.913C196.524 171.557 195.346 167.877 195.346 162.871V141.029C195.346 139.343 196.189 138.499 197.875 138.499C199.562 138.499 200.405 139.343 200.405 141.029V162.871C200.405 166.485 201.088 168.974 202.453 170.339C203.845 171.705 206.361 172.387 210.001 172.387H212.812C217.416 172.387 220.788 171.597 222.93 170.018C225.098 168.439 226.182 166.057 226.182 162.871V141.029C226.182 139.343 227.025 138.499 228.712 138.499C230.398 138.499 231.241 139.343 231.241 141.029V182.666C231.241 186.333 230.358 189.05 228.591 190.817C226.851 192.583 224.161 193.467 220.521 193.467H206.066Z" fill="black"/>
<path d="M99 91.5C101.299 91.5 103.167 89.632 103.167 87.3333V86.1667H104.333C106.632 86.1667 108.5 84.2986 108.5 82C108.5 79.7014 106.632 77.8333 104.333 77.8333H103.167V76.6667C103.167 74.368 101.299 72.5 99 72.5C96.7014 72.5 94.8333 74.368 94.8333 76.6667V77.8333H93.6667C91.368 77.8333 89.5 79.7014 89.5 82C89.5 84.2986 91.368 86.1667 93.6667 86.1667H94.8333V87.3333C94.8333 89.632 96.7014 91.5 99 91.5ZM99.0001 82.1819C98.9427 82.118 98.882 82.0573 98.8182 82C98.8819 81.9427 98.9426 81.882 98.9999 81.8182C99.0572 81.882 99.1179 81.9428 99.1818 82.0001C99.118 82.0574 99.0573 82.1181 99.0001 82.1819Z" fill="white" stroke="black" stroke-width="3"/>
<path d="M96.4909 106.566L97.2301 107.239L96.4909 106.566C93.1508 110.231 90.8521 112.677 86.9584 112.677C85.6642 112.677 84.0161 112.071 82.6898 110.913C81.3831 109.771 80.4553 108.152 80.4553 106.161V82.1107C80.4554 72.1368 88.3439 65.0727 98.4353 65.0727L119.972 65.0726C121.356 65.0726 122.473 63.9491 122.473 62.5694C122.473 61.1898 121.356 60.0663 119.972 60.0663L98.4353 60.0665C85.7403 60.0665 75.4542 69.2792 75.4542 82.1109V106.162C75.4542 112.986 81.5119 117.684 86.9584 117.684C93.1302 117.684 96.6867 113.781 100.092 110.043L100.185 109.941C102.463 107.442 104.792 104.895 108.045 102.947C111.273 101.015 115.465 99.6457 121.472 99.6457C127.49 99.6457 131.694 101.018 134.933 102.956C138.196 104.908 140.535 107.462 142.821 109.967L142.821 109.967L142.918 110.073C146.315 113.794 149.866 117.684 155.986 117.684C161.425 117.684 167.491 113.026 167.491 106.241V82.1107C167.491 69.278 156.675 59.5903 143.982 59.5903H134.477V46.0347C134.477 41.3399 130.665 37.5188 125.974 37.5188C121.283 37.5188 117.471 41.3397 117.471 46.0347C117.471 47.9703 115.897 49.5442 113.969 49.5442C112.041 49.5442 110.467 47.9703 110.467 46.0347V6.98428C110.467 5.60461 109.351 4.48117 107.967 4.48117C106.583 4.48117 105.466 5.60461 105.466 6.98428V46.0347C105.466 50.7295 109.278 54.5506 113.969 54.5506C118.66 54.5506 122.473 50.7298 122.473 46.0347C122.473 44.0992 124.046 42.5252 125.974 42.5252C127.903 42.5252 129.476 44.0992 129.476 46.0347V62.0934C129.476 63.4731 130.592 64.5965 131.977 64.5965H143.982C154.074 64.5965 162.489 72.1377 162.489 82.1105V106.241C162.489 108.296 161.547 109.889 160.243 110.991C158.916 112.111 157.265 112.677 155.986 112.677C152.142 112.677 149.849 110.243 146.513 106.589L146.485 106.558C144.134 103.982 141.398 100.985 137.499 98.6512C133.562 96.2944 128.489 94.6391 121.472 94.6391C114.467 94.6391 109.404 96.291 105.477 98.6432C101.586 100.974 98.8599 103.966 96.5176 106.536L96.4909 106.566Z" fill="black" stroke="black" stroke-width="2"/>
<path d="M152.985 86.6203C155.467 86.6203 157.487 84.597 157.487 82.1108C157.487 79.6245 155.467 77.6013 152.985 77.6013C150.503 77.6013 148.483 79.6245 148.483 82.1108C148.483 84.597 150.503 86.6203 152.985 86.6203ZM152.985 80.6077C153.813 80.6077 154.486 81.2825 154.486 82.1108C154.486 82.939 153.813 83.6139 152.985 83.6139C152.157 83.6139 151.485 82.939 151.485 82.1108C151.485 81.2825 152.157 80.6077 152.985 80.6077Z" fill="black"/>
<path d="M143.982 68.5822C141.5 68.5822 139.48 70.6054 139.48 73.0916C139.48 75.5779 141.5 77.6011 143.982 77.6011C146.464 77.6011 148.483 75.5779 148.483 73.0916C148.483 70.6054 146.464 68.5822 143.982 68.5822ZM143.982 74.5949C143.153 74.5949 142.481 73.9201 142.481 73.0918C142.481 72.2636 143.153 71.5887 143.982 71.5887C144.81 71.5887 145.482 72.2636 145.482 73.0918C145.482 73.9199 144.81 74.5949 143.982 74.5949Z" fill="black"/>
<path d="M134.978 77.6013C132.496 77.6013 130.476 79.6245 130.476 82.1108C130.476 84.597 132.496 86.6203 134.978 86.6203C137.46 86.6203 139.48 84.597 139.48 82.1108C139.48 79.6245 137.46 77.6013 134.978 77.6013ZM134.978 83.614C134.15 83.614 133.477 82.9392 133.477 82.1109C133.477 81.2827 134.15 80.6078 134.978 80.6078C135.806 80.6078 136.478 81.2827 136.478 82.1109C136.478 82.9392 135.806 83.614 134.978 83.614Z" fill="black"/>
<path d="M143.982 95.6391C146.464 95.6391 148.483 93.6159 148.483 91.1296C148.483 88.6434 146.464 86.6201 143.982 86.6201C141.5 86.6201 139.48 88.6434 139.48 91.1296C139.48 93.6159 141.5 95.6391 143.982 95.6391ZM143.982 89.6265C144.81 89.6265 145.482 90.3014 145.482 91.1296C145.482 91.9579 144.81 92.6328 143.982 92.6328C143.153 92.6328 142.481 91.9579 142.481 91.1296C142.481 90.3014 143.153 89.6265 143.982 89.6265Z" fill="black"/>
</svg>
