<?xml version="1.0" encoding="utf-8"?>
<!-- Generator: Adobe Illustrator 24.3.0, SVG Export Plug-In . SVG Version: 6.00 Build 0)  -->
<svg version="1.1" id="Слой_1" xmlns="http://www.w3.org/2000/svg" xmlns:xlink="http://www.w3.org/1999/xlink" x="0px" y="0px"
	 viewBox="0 0 595.28 126" style="enable-background:new 0 0 595.28 126;" xml:space="preserve">
<style type="text/css">
	.st0{fill-rule:evenodd;clip-rule:evenodd;fill:#00BDFC;}
	.st1{fill-rule:evenodd;clip-rule:evenodd;fill:#6EE4FE;}
	.st2{fill-rule:evenodd;clip-rule:evenodd;}
</style>
<g>
	<path class="st0" d="M12.21,22.78c3.53-1.99,7.82-0.81,11.14,1.02c10.67,6.06,21.28,12.3,31.9,18.37c0.56,0.18,1.68,0.54,2.25,0.72
		c6.84,3.97,13.62,8.06,20.57,11.83c2.83,1.53,5.12,3.84,7,6.42c-0.03,2.26,0,4.52,0.08,6.79c-2.11,2.67-4.55,5.13-7.56,6.75
		c-6.64,3.55-13.03,7.53-19.64,11.1c-1.03,0.39-2.21,0.45-3.1,1.14c-9.9,6.31-20.33,11.79-30.41,17.82
		c-3.57,2.18-8.32,3.81-12.25,1.6c-3.02-1.7-4.23-5.29-4.19-8.58C7.96,75.84,8.01,53.94,7.98,32.03
		C7.87,28.56,8.95,24.55,12.21,22.78z"/>
	<path class="st1" d="M55.41,29.77c-0.02-3.49,2.38-7.2,6.01-7.74c3.71-0.98,7.38,0.73,10.56,2.49
		c18.45,10.85,37.09,21.36,55.55,32.19c5.58,3.26,5.51,12.37,0.02,15.69c-18.79,10.97-37.68,21.78-56.51,32.7
		c-2.93,1.6-6.35,2.88-9.71,2c-3.57-0.65-5.87-4.26-5.98-7.72c-0.17-4.16,0.17-8.33-0.49-12.45c0.89-0.7,2.07-0.75,3.1-1.14
		c6.61-3.57,13.01-7.55,19.64-11.1c3.01-1.62,5.45-4.08,7.56-6.75c-0.08-2.27-0.11-4.53-0.08-6.79c-1.89-2.58-4.18-4.89-7-6.42
		c-6.96-3.77-13.73-7.86-20.57-11.83c-0.56-0.18-1.68-0.54-2.25-0.72l-0.05-0.59C54.85,37.64,55.33,33.71,55.41,29.77z"/>
	<path class="st2" d="M229.33,24.97c-0.13-1.85,1.57-3.25,3.34-3.2c4.18-0.06,8.37,0.02,12.56-0.03c2.12-0.33,4.88,0.61,4.85,3.17
		c0.11,10.86-0.03,21.72,0.07,32.59c3.86-0.12,7.72,0.09,11.58-0.13c1.63-0.08,3.23-0.92,4.16-2.28
		c3.49-5.16,6.72-10.51,10.26-15.64c1.77-2.84,5.45-1.94,8.26-2.07c1.93,0.13,4.53-0.56,5.7,1.47c0.68,2.52-1.39,4.52-2.57,6.51
		c-4.16,5.92-7.62,12.34-12.39,17.81c1.84,1.53,3.47,3.32,4.78,5.34c4.16,6.21,8.54,12.28,12.62,18.54c1.3,1.63,0.57,4.32-1.63,4.56
		c-2.97,0.13-5.96,0.23-8.91-0.07c-1.67-0.17-2.69-1.56-3.55-2.83c-3.58-5.29-7.19-10.57-10.78-15.87c-0.99-1.5-2.38-2.98-4.3-3.03
		c-4.41-0.23-8.84-0.01-13.26-0.12c-0.08,6.27,0.05,12.54-0.05,18.81c-0.02,1.69-1.31,3.05-3,3.12c-2.65,0.06-5.41,0.41-7.97-0.37
		c-1.47-0.49-1.6-2.25-1.62-3.55c0.02-16.99-0.02-33.97,0.03-50.95c-0.02-1.07-0.12-2.14-0.31-3.18c-2.45,0.02-5.87,0.97-7.5-1.46
		C229,29.83,229.22,27.33,229.33,24.97L229.33,24.97z M168.13,42.65c5.85-5.17,14.12-6.14,21.62-6.14c7.82,0.14,16.03,0.7,23.08,4.4
		c3.34,1.75,2.68,6.03,2.74,9.17c-0.14,1.96,0.26,4.97-2.21,5.62c-2.59,0.31-5.28,0.45-7.84-0.13c-2.06-1.02-1.54-3.66-1.87-5.52
		c-6.86-1.72-14.09-1.91-21.06-0.85c-2.15,0.53-4.98,1.03-5.9,3.32c-0.81,2.28,1.71,3.61,3.49,4.14c10.49,2.74,22.19,1.46,31.8,7.14
		c7.7,4.55,7.99,16.72,1.29,22.29c-6.21,5.38-14.91,6.32-22.8,6.46c-9.04-0.2-18.52-1.75-26.14-6.91c-2.15-1.24-3.44-3.9-2.23-6.25
		c1.03-2.08,1.5-4.85,3.76-5.99c2.31-0.46,3.97,1.6,5.88,2.51c7.38,4.03,16.08,4.95,24.35,4.41c3.07-0.37,6.89-0.79,8.62-3.75
		c0.95-2.22-1.24-4.19-3.26-4.6c-8.97-2.08-18.45-1.67-27.19-4.83c-4.04-1.43-8.03-3.98-9.81-8.03
		C162.13,53.59,163.58,46.6,168.13,42.65L168.13,42.65z M381.74,44.02c5.82-5.28,13.86-7.52,21.6-7.52
		c8.17-0.11,16.68,2.35,22.69,8.08c5.98,5.64,8.5,14.2,7.88,22.27c-0.1,2-2.1,3.15-3.94,2.93c-14.85-0.04-29.71,0.08-44.55-0.06
		c1.61,6.28,7.92,9.98,14.01,10.79c7.98,1.13,16.79,0.19,23.45-4.7c1.22-0.99,3.19-1.82,4.49-0.45c1.59,1.75,2.5,4,3.44,6.14
		c0.77,1.93-1.03,3.54-2.42,4.57c-6.38,4.45-14.28,6.16-21.94,6.45c-8.74,0.27-17.98-1.82-24.67-7.76
		C370.19,74.6,370.19,54.22,381.74,44.02L381.74,44.02z M394.31,49.87c-4.21,1.5-7.63,4.93-9.01,9.2
		c12.19,0.11,24.38,0.03,36.57,0.04c-1.24-3.9-4.2-7.15-7.95-8.79C407.77,47.7,400.59,47.61,394.31,49.87L394.31,49.87z
		 M465.54,44.43c8.66-7.09,20.81-9.77,31.58-6.66c5.87,1.64,10.92,5.96,13.35,11.54c2.68,5.85,2.6,12.4,2.53,18.69
		c-0.02,6.54,0.02,13.09-0.02,19.63c-0.02,1.56-0.49,3.58-2.33,3.82c-2.64,0.39-5.38,0.4-8.01-0.01c-1.85-0.2-2.46-2.21-2.42-3.8
		c-0.05-8.64,0.01-17.28-0.02-25.92c-0.03-3.96-1.8-8.12-5.27-10.24c-3.66-2.36-8.28-2.48-12.45-1.8c-5.67,1.26-11.07,4.08-15.1,8.3
		c0.02,9.88,0.01,19.77,0.01,29.65c0,1.35-0.2,3.25-1.78,3.65c-2.67,0.73-5.54,0.45-8.26,0.26c-1.93-0.22-2.8-2.23-2.64-3.97
		c-0.08-12.8,0.05-25.6-0.05-38.39c-2.53-0.09-6.47,1.13-7.75-1.86c-0.52-2.39-0.31-4.9-0.17-7.32c0.14-1.67,1.85-2.75,3.45-2.61
		c4.17,0.02,8.36-0.12,12.53,0.05C466.19,37.83,465.43,41.96,465.54,44.43L465.54,44.43z M536.49,45.4
		c4.8-5.18,11.73-7.97,18.67-8.66c6.99-0.76,14.59,0.07,20.36,4.41c1.08-1.71,2.46-3.71,4.72-3.76c2.1,0.08,4.45-0.45,6.37,0.65
		c1.43,1.23,1.13,3.29,1.24,4.97c-0.04,16.41,0.03,32.83-0.03,49.24c0.09,5.83-3.66,11.07-8.56,13.92
		c-8.08,4.92-17.98,5.31-27.14,4.3c-6.19-0.88-12.7-2.7-17.22-7.26c-2.37-2.75,0.17-6.14,1.31-8.84c0.76-2.26,3.7-2.6,5.27-0.96
		c6.22,5.57,15.1,6.23,23.05,5.45c3.89-0.61,8.55-1.91,10.28-5.86c0.54-2.21,0.18-4.54,0.27-6.78c-6.57,4.24-14.83,4.7-22.36,3.47
		c-7.96-1.25-15.72-5.72-19.61-12.96C527.9,66.9,528.9,53.72,536.49,45.4L536.49,45.4z M545.86,54.74
		c-4.21,5.45-3.76,14.14,1.41,18.84c3.75,3.49,9.13,4.56,14.11,4.26c5.08-0.09,10.29-1.86,13.74-5.72
		c-0.05-5.81-0.01-11.62-0.02-17.43c-3.71-4.38-9.62-5.94-15.17-5.85C554.73,48.75,549.15,50.51,545.86,54.74L545.86,54.74z
		 M302.53,37.71c2.48-0.71,5.16-0.19,7.72-0.34c2.08-0.19,4.47,0.59,5.27,2.71c4.61,9.48,9.28,18.92,13.83,28.42
		c1.25,2.45,2.15,5.1,3.7,7.39c0.85-0.44,0.96-1.59,1.44-2.35c5.18-11.38,10.89-22.51,16.32-33.76c1.36-3.07,5.2-2.32,7.9-2.41
		c2.34,0.05,6.17-0.64,6.69,2.55c-0.31,2.64-2.07,4.81-3.17,7.17c-8.58,16.29-17.18,32.56-25.75,48.83
		c-1.72,3.29-3.98,6.55-7.43,8.19c-4.66,2.28-9.99,1.49-14.99,1.6c-2.22,0.24-3.87-1.84-3.55-3.94c0.23-2.43-0.78-5.41,1.15-7.34
		c3.6-1.61,7.72,0.07,11.43-1.1c1.62-0.74,2.64-2.41,3.11-4.07c-8.17-15.67-16.55-31.26-24.77-46.92
		C300.6,40.87,300.52,38.25,302.53,37.71z"/>
</g>
</svg>
