<svg xmlns="http://www.w3.org/2000/svg" width="190" height="40" viewBox="0 0 190 40">
  <g fill="none" fill-rule="evenodd">
    <path fill="#005FF9" d="M190,4.8 C190,2.1508 187.8492,0 185.2,0 L4.8,0 C2.1508,0 0,2.1508 0,4.8 L0,35.2 C0,37.8492 2.1508,40 4.8,40 L185.2,40 C187.8492,40 190,37.8492 190,35.2 L190,4.8 Z"/>
    <g transform="translate(13.333 6.667)">
      <rect width="2.527" height="17.161" x="132.217" y="2.467" fill="#FFFFFF"/>
      <circle cx="139.017" cy="18.234" r="1.705" fill="#FFFFFF"/>
      <path fill="#FFFFFF" d="M145.670667,9.04693333 C146.541067,8.05893333 147.388133,7.4668 149.2536,7.4668 L149.2536,7.4668 L150.754267,7.4668 L150.754267,9.85773333 L149.2536,9.85773333 C146.875333,9.85733333 145.647733,11.6130667 145.647733,13.6569333 C145.647733,14.4842667 145.650133,19.6174667 145.650133,19.6273333 L143.1616,19.6273333 L143.1616,7.4668 L145.650133,7.4668 L145.650133,9.0704 L145.670667,9.04693333 Z"/>
      <rect width="2.527" height="12.161" x="126.959" y="7.467" fill="#FFFFFF"/>
      <circle cx="128.223" cy="3.747" r="1.706" fill="#FFFFFF"/>
      <path fill="#FFFFFF" d="M124.228 19.6273333L121.7436 19.6273333 121.7436 18.2974667C120.853467 19.3056 119.285067 19.9396 117.809733 19.9396 114.2816 19.9396 111.4172 17.0752 111.4172 13.5470667 111.4172 10.0189333 114.2816 7.15453333 117.809733 7.15453333 119.285067 7.15453333 120.770667 7.71 121.7436 8.69266667L121.7436 7.4668 124.228 7.4668 124.228 19.6273333 124.228 19.6273333zM117.890667 9.70946667C120.066133 9.70946667 121.7776 11.266 121.7776 13.5470667 121.7776 15.8281333 120.066133 17.398 117.890667 17.398 115.715333 17.398 114.062 15.7224 114.062 13.5470667 114.062 11.3716 115.715333 9.70946667 117.890667 9.70946667zM161.217333 7.4668L163.705733 7.4668 163.705733 14.3205333C163.705733 14.3205333 163.705733 19.6273333 163.705733 19.6273333L161.221333 19.6273333C161.221867 19.1716 161.2268 18.7522667 161.221333 18.2954667 160.322267 19.3314667 158.880267 19.9396 157.7548 19.9396 154.2012 19.9396 152.4684 17.8524 152.4684 14.6348L152.4684 7.4668 154.9568 7.4668 154.9568 14.4289333C154.9568 16.2276 156.1852 17.4832 157.9128 17.4832 159.893333 17.4832 161.217333 15.8693333 161.217333 14.1417333L161.217333 7.4668 161.217333 7.4668zM92.8664 19.6273333L90.3821333 19.6273333 90.3821333 7.4668 92.8664 7.4668 92.8664 8.316C93.4181333 7.79733333 94.4524 7.1564 95.8869333 7.15453333 97.6501333 7.15453333 98.9644 7.89613333 99.8652 9.08946667 100.849733 7.908 102.473467 7.15453333 104.127867 7.15453333 107.232667 7.15453333 109.3484 9.25053333 109.3484 12.5172L109.3484 19.6273333 106.863867 19.6273333 106.863867 12.5172C106.863867 10.9301333 105.572667 9.63893333 103.985733 9.63893333 102.398533 9.63893333 101.107467 10.9301333 101.107467 12.5172L101.107467 19.6273333 98.6230667 19.6273333 98.6230667 12.5172C98.6230667 10.9301333 97.3317333 9.63893333 95.7448 9.63893333 94.1577333 9.63893333 92.8664 10.9301333 92.8664 12.5172L92.8664 19.6273333z"/>
      <path fill="#FF9E00" fill-rule="nonzero" d="M75.8490667,13.3332 C75.8490667,15.5448 74.05,17.344 71.8385333,17.344 C69.6270667,17.344 67.8278667,15.5448 67.8278667,13.3332 C67.8278667,11.1218667 69.6270667,9.32266667 71.8385333,9.32266667 C74.05,9.32266667 75.8490667,11.1218667 75.8490667,13.3332 M71.8385333,0 C64.4864,0 58.5052,5.98133333 58.5052,13.3332 C58.5052,20.6853333 64.4864,26.6666667 71.8385333,26.6666667 C74.532,26.6666667 77.1292,25.8646667 79.3489333,24.3476 L79.3874667,24.3212 L77.5912,22.2328 L77.5606667,22.2525333 C75.8517333,23.352 73.8730667,23.9330667 71.8385333,23.9330667 C65.9937333,23.9330667 61.2388,19.178 61.2388,13.3332 C61.2388,7.48853333 65.9937333,2.7336 71.8385333,2.7336 C77.6832,2.7336 82.4382667,7.48853333 82.4382667,13.3332 C82.4382667,14.0906667 82.3542667,14.8574667 82.1886667,15.6118667 C81.8533333,16.9874667 80.8904,17.4089333 80.1668,17.3530667 C79.4396,17.2944 78.5884,16.7758667 78.5828,15.5073333 L78.5828,14.5412 L78.5828,13.3332 C78.5828,9.61453333 75.5573333,6.58906667 71.8385333,6.58906667 C68.1197333,6.58906667 65.0942667,9.61453333 65.0942667,13.3332 C65.0942667,17.0521333 68.1197333,20.0776 71.8385333,20.0776 C73.6448,20.0776 75.3394667,19.3710667 76.6166667,18.0866667 C77.3593333,19.2425333 78.5704,19.9673333 79.9478667,20.0778667 C80.066,20.0873333 80.1866667,20.0922667 80.3065333,20.0922667 C81.2764,20.0922667 82.2376,19.768 83.0126667,19.1796 C83.812,18.5728 84.4086667,17.6950667 84.7381333,16.6410667 C84.7913333,16.4709333 84.8877333,16.0808 84.8882667,16.0782667 L84.8910667,16.0642667 C85.0853333,15.2178667 85.1718667,14.3748 85.1718667,13.3332 C85.1718667,5.98133333 79.1905333,0 71.8385333,0"/>
      <path fill="#FFFFFF" d="M42.1318667,11.158 L45.2421333,11.158 C47.5114667,11.158 49.3537333,13.1125333 49.3537333,15.3818667 C49.3537333,17.6510667 47.5114667,19.6270667 45.2421333,19.6270667 L42.1318667,19.6270667 L42.1318667,19.6273333 L39.6473333,19.6273333 L39.6473333,19.6270667 C39.6473333,19.6270667 39.6473333,11.2334667 39.6473333,11.2334667 C39.6473333,11.2334667 39.6473333,7.4668 39.6473333,7.4668 L42.1318667,7.4668 L42.1318667,11.158 Z M44.9457333,13.5470667 L43.9105333,13.5470667 C43.8796,13.5470667 43.8488,13.5477333 43.8182667,13.5493333 L42.1102667,13.5493333 L42.1102667,17.2358667 L44.9457333,17.2358667 C45.9637333,17.2358667 46.7157333,16.4093333 46.7157333,15.3914667 C46.7157333,14.3734667 45.9637333,13.5470667 44.9457333,13.5470667 Z"/>
      <rect width="2.484" height="12.161" x="50.811" y="7.467" fill="#FFFFFF"/>
      <polygon fill="#FFFFFF" points="14.348 7.467 22.905 7.467 22.905 9.858 16.875 9.858 16.875 19.627 14.348 19.627"/>
      <polygon fill="#FFFFFF" points="2.064 19.627 0 19.627 0 7.467 2.485 7.467 2.485 15.586 9.541 7.467 11.605 7.467 11.605 19.627 9.121 19.627 9.121 11.677 2.064 19.627"/>
      <path fill="#FFFFFF" d="M24.716,23.9136 L27.2004,23.9092 L27.2004,18.2974667 C28.0905333,19.3056 29.6590667,19.9396 31.1342667,19.9396 C34.6624,19.9396 37.5268,17.0752 37.5268,13.5470667 C37.5268,10.0189333 34.6624,7.15453333 31.1342667,7.15453333 C29.6590667,7.15453333 28.1733333,7.71 27.2004,8.69266667 L27.2004,7.4668 L24.716,7.4668 L24.716,23.9136 Z M31.0533333,9.70946667 C28.8778667,9.70946667 27.1664,11.266 27.1664,13.5470667 C27.1664,15.8281333 28.8778667,17.398 31.0533333,17.398 C33.2286667,17.398 34.882,15.7224 34.882,13.5470667 C34.882,11.3716 33.2286667,9.70946667 31.0533333,9.70946667 L31.0533333,9.70946667 Z"/>
    </g>
  </g>
</svg>
